<svg width="640" height="480" viewBox="0 0 640 480" fill="none" xmlns="http://www.w3.org/2000/svg">
<defs>
  <linearGradient id="g1" x1="0" y1="0" x2="1" y2="1">
    <stop offset="0%" stop-color="#10b981"/>
    <stop offset="100%" stop-color="#34d399"/>
  </linearGradient>
</defs>
<rect width="640" height="480" rx="24" fill="url(#g1)" fill-opacity="0.08"/>
<g fill="#10b981" fill-opacity="0.25">
  <circle cx="96" cy="96" r="24"/>
  <circle cx="160" cy="144" r="12"/>
  <circle cx="520" cy="88" r="16"/>
  <circle cx="560" cy="136" r="10"/>
  <circle cx="480" cy="400" r="20"/>
  <circle cx="128" cy="368" r="14"/>
  <circle cx="320" cy="56" r="8"/>
  <circle cx="320" cy="424" r="8"/>
  <circle cx="600" cy="280" r="12"/>
</g>
<g stroke="#10b981" stroke-width="3" stroke-linecap="round">
  <path d="M140 220 h220" opacity="0.35"/>
  <path d="M140 260 h280" opacity="0.35"/>
  <path d="M140 300 h180" opacity="0.35"/>
</g>
<g>
  <rect x="100" y="160" width="440" height="200" rx="16" fill="#fff"/>
  <rect x="120" y="186" width="400" height="20" rx="10" fill="#ecfdf5"/>
  <rect x="120" y="226" width="360" height="20" rx="10" fill="#ecfdf5"/>
  <rect x="120" y="266" width="280" height="20" rx="10" fill="#ecfdf5"/>
  <circle cx="520" cy="196" r="10" fill="#10b981"/>
  <circle cx="520" cy="236" r="10" fill="#10b981"/>
  <circle cx="520" cy="276" r="10" fill="#10b981"/>
</g>
</svg>

